<?xml version="1.0" encoding="UTF-8" standalone="no"?>
<!-- Created with Inkscape (http://www.inkscape.org/) -->

<svg
   version="1.1"
   id="svg1"
   width="169.88676"
   height="197.86449"
   viewBox="0 0 169.88676 197.86449"
   xmlns="http://www.w3.org/2000/svg"
   xmlns:svg="http://www.w3.org/2000/svg">
  <defs
     id="defs1" />
  <g
     id="g1"
     transform="translate(-15.003729,-1.0729159)">
    <path
       style="fill:#000000"
       d="M 93.315372,197.99302 C 90.589235,196.89463 89,194.01804 89,190.18198 v -2.9495 l -6.25,2.53818 c -11.780595,4.78419 -24.668754,3.9867 -27.720356,-1.71527 -1.435733,-2.68269 -1.210053,-8.81095 0.499192,-13.55539 0.792578,-2.2 1.447827,-5.4625 1.456108,-7.25 0.01295,-2.79493 -0.33135,-3.25 -2.458885,-3.25 -1.360668,0 -6.003316,1.77964 -10.316996,3.95475 -12.913208,6.51131 -20.944883,7.40069 -26.607616,2.94639 -1.961239,-1.54271 -2.600527,-2.9513 -2.597709,-5.72372 0.0041,-4.02367 1.26182,-6.23708 9.430357,-16.59597 11.496949,-14.5798 19.624553,-33.48764 35.96652,-83.671565 C 67.569528,42.895143 69.942776,36.884429 74.19292,29.978177 80.927945,19.034127 89.921855,10.093971 98.144662,6.1695873 109.95711,0.5320235 118.37474,-0.23779796 133.67665,2.920063 c 19.15437,3.952897 33.71664,15.18186 41.76218,32.2028 6.6624,14.094822 8.6697,22.198448 9.25845,37.377137 0.4642,11.967654 0.26272,14.032346 -2.53716,26 -5.00139,21.37769 -15.16537,48.92667 -23.55321,63.83981 -1.90563,3.38811 -6.01541,9.23862 -9.13286,13.00114 -7.85294,9.47791 -16.88048,13.51941 -23.97405,10.73281 -1.51256,-0.59418 -2.97213,0.0445 -5.98869,2.62053 -5.38231,4.59628 -17.06015,10.32036 -20.895667,10.24232 -1.713604,-0.0349 -4.098726,-0.45948 -5.300271,-0.94359 z m 9.834278,-2.33754 c 7.78001,-2.34144 14.87649,-7.88009 20.85035,-16.27323 6.52093,-9.16177 9.40261,-10.95383 4.48673,-2.7902 -4.20673,6.98597 -3.48292,8.89305 3.09393,8.15175 10.77724,-1.21475 23.46322,-16.70899 33.11406,-40.44439 6.02668,-14.82212 14.25303,-40.2378 16.43874,-50.788234 3.94894,-19.061599 1.12832,-38.87506 -8.32697,-58.492909 C 164.60756,18.007121 148.27635,6.84894 127.24396,3.8879938 116.25502,2.3409685 110.50278,3.1995691 100.52234,7.8765586 86.65545,14.374805 77.835289,24.810967 70.045307,43.9375 65.636759,54.76169 64.07902,59.308318 57.004556,82 51.124479,100.86063 39.801713,129.28124 34.872346,137.55277 32.595256,141.37374 28.162353,147.65 25.021451,151.5 18.297627,159.74181 17,161.99222 17,165.41121 c 0,4.09716 3.814673,5.89726 11.464896,5.41013 5.168994,-0.32914 8.07158,-1.2547 14.517242,-4.62917 4.431064,-2.31977 9.172791,-4.31016 10.537171,-4.42308 C 54.951866,161.65053 56,160.93766 56,160.08189 c 0,-2.64881 2.096876,0.41378 2.987737,4.36374 0.605898,2.68647 0.312765,5.50675 -1.077736,10.36908 -2.512788,8.78676 -2.434252,9.81488 1.013076,13.26221 2.338259,2.33826 3.796744,2.92308 7.289901,2.92308 5.415344,0 14.530534,-2.31834 19.914427,-5.065 2.236523,-1.14099 4.261772,-1.87916 4.500554,-1.64037 0.238781,0.23878 0.712523,2.78458 1.052759,5.65735 0.477715,4.03355 1.096987,5.41657 2.718947,6.07222 2.933078,1.18565 3.691374,1.15369 8.749985,-0.36872 z M 161.33254,76.384769 c -1.53431,-2.341656 -1.55964,-2.88947 -0.24212,-5.236798 2.11828,-3.773972 6.27982,-5.027867 8.8793,-2.675376 C 171.08637,69.483154 172,71.520486 172,73 c 0,5.818432 -7.51126,8.201743 -10.66746,3.384769 z m -47.29358,-1.57333 c -2.67928,-2.875863 -2.58111,-5.953485 0.27549,-8.637125 3.03217,-2.848571 6.19832,-2.752454 9.231,0.280231 2.83781,2.837808 3.09165,5.190857 0.89785,8.322949 -2.10745,3.008802 -7.6161,3.026774 -10.40434,0.03394 z"
       id="path1" />
  </g>
</svg>
