<?xml version="1.0" encoding="UTF-8" standalone="no"?>
<!-- Created with Inkscape (http://www.inkscape.org/) -->

<svg
   version="1.1"
   id="svg1"
   width="532.7381"
   height="619.56744"
   viewBox="0 0 532.7381 619.56744"
   xmlns:xlink="http://www.w3.org/1999/xlink"
   xmlns="http://www.w3.org/2000/svg"
   xmlns:svg="http://www.w3.org/2000/svg">
  <defs
     id="defs1" />
  <g
     id="g1"
     transform="translate(-19.15667,-20.5)">
    <path
       style="fill:var(--how-to-icon-color)"
       d="M 60.567787,638.46771 C 42.665675,633.55517 27.984246,619.3099 21.227928,600.29659 19.641496,595.83213 19.503316,577.42784 19.23231,334.5 19.018783,143.09662 19.244127,71.674057 20.077388,66.652382 23.415096,46.537587 39.664829,28.723661 60.5,22.338705 66.247044,20.577519 75.775058,20.5 286.5,20.5 h 220 l 7.04153,2.215461 c 19.84082,6.242479 34.686,23.607677 37.66714,44.061267 3.64506,25.008756 -11.1294,49.186462 -35.49265,58.082062 L 508.5,127.49353 471.75,127.8131 435,128.13268 v 202.36804 202.36803 l 37.25,0.33959 c 37.01801,0.33748 37.29058,0.35527 43.76508,2.85624 17.66755,6.82462 29.49045,19.86222 33.99958,37.49273 2.34169,9.15594 2.47431,15.47135 0.51868,24.69996 -4.01561,18.94966 -19.63417,35.22492 -38.6643,40.28997 -7.80678,2.07785 -443.719352,2.00103 -451.301253,-0.0795 z m 26.943167,-20.90784 c 5.279351,-2.20585 13.168236,-10.18875 16.014576,-16.20542 7.10927,-15.02777 2.27019,-33.02895 -11.446324,-42.5799 -5.178797,-3.60604 -5.78147,-3.77472 -13.5,-3.77829 -6.310049,-0.003 -8.796338,-0.44097 -11.354132,-2.00046 -5.932219,-3.61687 -6.981532,-10.99839 -2.307165,-16.23002 L 67.835818,533.5 240.41791,533.24157 413,532.98315 V 330.49157 128 L 241.75,127.996 C 72.357181,127.992 70.464484,127.9706 67.225074,125.99554 c -5.902828,-3.59895 -6.772092,-11.90333 -1.76962,-16.9058 2.217797,-2.2178 3.620305,-2.5846 11.781023,-3.0811 6.04133,-0.36756 10.412491,-1.1813 12.566704,-2.33943 5.21973,-2.80619 11.169159,-9.379255 14.048859,-15.521508 3.51174,-7.490367 3.7167,-20.099075 0.44415,-27.323632 C 101.65028,54.983165 94.976858,47.656784 89.239588,44.294521 85.205034,41.930114 84.182044,41.769227 76.109405,42.229508 60.964754,43.093017 49.385196,50.431801 43.679273,62.782772 L 41.5,67.5 v 263 263 l 2.137328,4.6224 c 4.237931,9.16539 13.405625,16.84458 23.292021,19.51023 6.290221,1.69603 16.434129,1.66017 20.581605,-0.0728 z M 191.00873,489.16258 c -1.88314,-1.88315 -3.05485,-4.32146 -3.4839,-7.25 -0.35556,-2.42692 -0.5066,-21.61694 -0.33565,-42.64449 l 0.31082,-38.23191 3.26901,-3.26809 3.26901,-3.26809 92.23099,-0.29799 c 65.06314,-0.21021 93.34969,0.0268 96.02881,0.80447 2.51762,0.73083 4.45462,2.17964 5.74627,4.29799 1.84787,3.0306 1.94863,5.32276 1.95217,44.41073 L 390,484.93041 386.89641,488.4652 383.79282,492 H 288.81948 193.84615 Z M 368,443.5 V 416 H 288.5 209 V 443.5 471 H 288.5 368 Z M 80.995441,367.69186 c -2.477507,-0.69193 -6.68491,-2.75816 -9.349784,-4.59165 -8.09619,-5.57032 -9.483078,-13.00761 -3.495375,-18.74419 3.992204,-3.82477 9.139623,-3.81312 14.689952,0.0333 5.107365,3.53941 6.964005,3.27359 21.203046,-3.03568 17.21913,-7.62973 28.69156,-7.14795 39.34085,1.65212 2.78974,2.3053 5.89093,3.99428 7.33404,3.99428 1.37522,0 7.08106,-1.99456 12.67965,-4.43235 13.04639,-5.6808 18.24891,-6.9501 25.95216,-6.33176 7.00637,0.56241 10.38667,2.03123 16.577,7.2031 2.40259,2.00731 5.35942,3.56101 6.77692,3.56101 1.38306,0 7.07799,-1.97954 12.65538,-4.39898 12.65311,-5.48884 16.64148,-6.58842 23.92284,-6.59544 6.91027,-0.007 11.36539,1.70776 18.25983,7.02678 2.82853,2.1822 6.22623,3.96215 7.55042,3.95543 1.3242,-0.007 6.00763,-1.62544 10.40763,-3.59716 21.76787,-9.75458 33.36899,-9.85892 44.14546,-0.39706 5.25197,4.61129 7.56883,4.75754 16.24882,1.02566 20.59885,-8.85628 29.15981,-10.10516 38.60572,-5.63183 6.11517,2.89598 11.15242,7.7536 11.98871,11.56119 0.88351,4.02259 -1.72101,9.60306 -5.36027,11.48499 -4.46857,2.31079 -8.08895,1.89553 -13.10549,-1.5032 -5.26495,-3.56704 -5.45292,-3.54268 -19.52295,2.52961 -11.87051,5.12303 -19.24467,6.84411 -25.4471,5.93917 -5.24752,-0.76561 -12.72548,-4.2673 -15.37519,-7.1997 -4.14075,-4.58251 -6.75365,-4.69197 -16.34588,-0.6848 -16.72044,6.985 -19.54469,7.80973 -26.83183,7.83539 -5.61641,0.0198 -8.00069,-0.49109 -12.06281,-2.58469 -2.78455,-1.43514 -5.67678,-3.34912 -6.42717,-4.25329 -0.7504,-0.90417 -2.64673,-2.30708 -4.21407,-3.11759 -3.39896,-1.75767 -5.69234,-1.23448 -17.44786,3.98038 -19.64223,8.71348 -28.36345,8.42629 -41.25761,-1.35861 -6.37245,-4.83581 -7.06618,-4.79846 -20.17351,1.08617 -20.04472,8.99922 -28.77542,8.7785 -41.88877,-1.05901 -6.37917,-4.78558 -7.23811,-4.76059 -19.15974,0.55743 -15.216353,6.78773 -22.929527,8.30948 -30.873019,6.09102 z m -1.503163,-58.48882 c -13.784639,-4.76672 -19.129089,-15.38651 -11.447152,-22.74627 3.929361,-3.76457 9.360379,-3.83376 14.623663,-0.1863 2.166292,1.50124 4.952275,2.72953 6.191073,2.72953 1.238799,0 6.839611,-1.97442 12.446248,-4.3876 14.35531,-6.17874 17.00989,-6.87675 24.5352,-6.45145 7.22927,0.40857 13.20672,2.91802 18.93885,7.95089 1.80919,1.58849 4.44795,2.88816 5.86392,2.88816 1.41597,0 7.13781,-1.97954 12.7152,-4.39898 12.39143,-5.37533 16.66026,-6.58824 23.21258,-6.59544 6.93854,-0.008 13.11955,2.29594 18.83638,7.02005 2.94593,2.43438 5.83291,3.96964 7.45064,3.96216 1.45262,-0.007 6.24112,-1.62544 10.64112,-3.59716 11.88886,-5.32761 19.02181,-7.39572 25.33909,-7.34674 7.31578,0.0567 11.92676,1.76075 18.5121,6.8413 2.93345,2.26315 6.41699,4.10932 7.74118,4.1026 1.3242,-0.007 6.00763,-1.62544 10.40763,-3.59716 11.88886,-5.32761 19.02181,-7.39572 25.33909,-7.34674 7.31578,0.0567 11.92676,1.76075 18.5121,6.8413 2.93345,2.26315 6.34767,4.11481 7.58715,4.11481 1.23948,0 7.72291,-2.32403 14.40763,-5.16452 10.13125,-4.30499 13.42604,-5.2407 19.79703,-5.62229 6.63046,-0.39713 8.35271,-0.12724 13,2.03714 10.15949,4.73158 14.35709,11.22506 11.56861,17.89608 -1.85281,4.43255 -3.8098,5.92295 -8.62539,6.56885 -3.31495,0.44463 -4.78825,0.008 -8.68442,-2.57251 -5.55647,-3.68045 -5.85565,-3.64314 -20.18979,2.51753 -11.66368,5.01293 -19.53387,6.79487 -25.5672,5.78885 -4.95577,-0.82635 -12.43769,-4.45039 -14.9671,-7.24967 -1.00227,-1.10919 -3.0912,-2.54231 -4.64208,-3.1847 -2.9726,-1.23129 -2.87909,-1.26082 -24.03563,7.5889 -5.06095,2.11697 -8.16045,2.72753 -14,2.75778 -8.18965,0.0424 -12.82997,-1.71969 -20.26688,-7.69615 -5.07066,-4.0749 -7.96464,-3.8416 -20.23312,1.63106 -19.56099,8.72566 -28.613,8.52618 -40.94242,-0.90228 -6.35308,-4.85828 -8.49285,-4.76583 -21.12785,0.91279 -18.07511,8.12361 -27.52173,8.34741 -38.32332,0.90792 -10.52068,-7.246 -9.52194,-7.19795 -23.14362,-1.11354 -9.35675,4.17939 -18.695361,6.91688 -23.422889,6.86611 -1.671945,-0.0179 -5.293376,-0.81189 -8.047623,-1.76431 z m -0.08872,-58.03003 C 68.255785,247.31952 62.445124,239.6571 65.367224,232.66354 68.349703,225.52546 76.0138,223.65856 82.859454,228.4026 84.92088,229.83117 87.64499,231 88.913033,231 c 1.268042,0 6.868855,-1.97954 12.446247,-4.39898 12.56737,-5.45165 16.65732,-6.591 23.64072,-6.58567 6.21074,0.005 13.11405,2.80121 19.3875,7.85373 2.15325,1.73418 5.05297,3.12547 6.5,3.11871 1.43688,-0.007 6.2125,-1.62544 10.6125,-3.59716 21.73498,-9.73984 32.45553,-9.82896 43.90824,-0.365 2.75663,2.27796 5.87111,3.97437 7.29661,3.97437 1.3679,0 7.9564,-2.31712 14.64112,-5.14915 19.12024,-8.10044 29.22009,-7.78467 40.16004,1.25558 6.07698,5.02172 8.19808,4.93343 21.11095,-0.87874 11.0088,-4.95513 15.46486,-6.21499 22.00731,-6.22211 6.8194,-0.007 12.61381,2.16339 19.07013,7.1444 6.43997,4.9684 8.00938,4.8907 21.20223,-1.04972 4.93047,-2.22007 11.0454,-4.56047 13.58872,-5.20089 18.01706,-4.53674 37.94322,9.07394 30.562,20.87556 -3.61297,5.77667 -10.15118,6.81112 -16.26603,2.57353 -5.08449,-3.52356 -7.96033,-3.2746 -18.85843,1.63254 -20.44876,9.20759 -31.19545,8.92687 -42.70769,-1.11558 -5.06573,-4.41899 -7.14855,-4.24069 -21.11054,1.80713 -19.02402,8.24052 -27.81824,8.15236 -39.18583,-0.39282 -4.11048,-3.0899 -7.02382,-4.55267 -8.95783,-4.49768 -1.57639,0.0448 -7.67791,2.17666 -13.55892,4.73744 -19.28793,8.39854 -27.93131,8.34589 -39.59607,-0.24122 -4.44394,-3.27144 -7.11093,-4.55327 -9.30214,-4.4709 -1.68959,0.0635 -7.68942,2.16275 -13.33296,4.66497 -13.48532,5.97906 -21.65645,7.42115 -29.33477,5.17714 -3.29173,-0.96201 -7.86424,-3.39456 -10.9176,-5.8081 -6.63432,-5.24413 -8.86373,-5.21565 -21.04389,0.26878 -15.849045,7.13644 -22.416129,8.1929 -31.471089,5.06285 z m -0.07111,-58.02408 c -6.777857,-2.34225 -12.190337,-6.56455 -14.015969,-10.9339 -1.246484,-2.98325 -1.268367,-4.05452 -0.143211,-7.01077 2.839983,-7.4618 10.747416,-9.61022 17.682425,-4.80426 4.91647,3.40712 7.081706,3.27581 16.6443,-1.00937 22.088957,-9.89847 32.135977,-9.79138 44.887497,0.47845 2.15325,1.73418 5.05297,3.12547 6.5,3.11871 1.43688,-0.007 6.2125,-1.62544 10.6125,-3.59716 21.74865,-9.74597 30.97581,-9.89666 43.12598,-0.70431 7.15044,5.40975 9.04081,5.37033 21.99098,-0.45863 10.98942,-4.94641 15.4656,-6.21498 21.9549,-6.22211 6.97879,-0.008 13.12591,2.3012 18.95826,7.12077 6.05006,4.99948 8.18512,4.90849 21.08684,-0.89866 10.98942,-4.94641 15.4656,-6.21498 21.9549,-6.22211 6.93854,-0.008 13.11955,2.29594 18.83638,7.02005 3.08833,2.55205 5.81685,3.97437 7.62429,3.97437 1.54811,0 8.1257,-2.31735 14.61685,-5.14967 18.58425,-8.10896 29.48695,-7.76389 39.73596,1.25766 5.35211,4.71111 6.65971,8.97043 4.20887,13.70982 -3.40183,6.57843 -10.52592,8.15923 -16.59421,3.68219 -4.73927,-3.49652 -8.72983,-3.17812 -19.18812,1.53099 C 350.1044,192.40203 341.39493,195 336.44883,195 c -5.42463,0 -12.36165,-2.68953 -17.84166,-6.91732 -6.84536,-5.28115 -9.07967,-5.2321 -22.21581,0.48778 -19.0414,8.2912 -27.96819,8.25989 -39.37608,-0.13813 C 252.94036,185.43254 249.99036,184 247.88791,184 c -1.70856,0 -7.71937,2.00859 -13.35735,4.46354 -10.65287,4.63858 -16.86912,6.47035 -22.09906,6.51201 -5.31435,0.0423 -12.74003,-2.79672 -18.20179,-6.95909 -6.71581,-5.11809 -9.19832,-5.11462 -20.72971,0.0289 C 163.84814,192.35058 155.005,195 150.28716,195 c -5.34541,0 -13.09507,-2.99012 -18.19241,-7.01934 -6.45244,-5.10036 -8.78617,-5.08321 -20.97327,0.15409 -16.770688,7.20706 -22.725453,8.14633 -31.789025,5.01418 z M 511.15538,615.84864 c 11.17886,-5.24088 17.84635,-15.00546 18.60275,-27.24386 0.78276,-12.66489 -5.46359,-23.80248 -16.90272,-30.13848 L 507.5,555.5 l -196.73649,-0.25984 -196.73648,-0.25983 3.41085,6.25983 c 5.33937,9.79919 6.85951,16.44292 6.32585,27.6469 -0.49774,10.44977 -2.31611,16.90878 -6.863,24.37796 -1.5954,2.62077 -2.90073,4.98881 -2.90073,5.26231 0,0.27351 88.0875,0.37925 195.75,0.23498 L 505.5,618.5 Z m 1.05906,-513.15479 C 535.71047,91.155816 535.91506,57.911763 512.56335,46 l -6.86136,-3.5 -195.851,-0.259887 C 202.13295,42.097175 114,42.252708 114,42.585742 c 0,0.333035 0.9327,1.915371 2.07266,3.516303 7.38965,10.377802 10.1103,29.369425 6.09568,42.551234 -1.14687,3.765696 -3.45392,8.999849 -5.12678,11.631451 -1.67286,2.6316 -3.04156,4.99854 -3.04156,5.25986 0,0.26132 88.3125,0.3582 196.25,0.21527 L 506.5,105.5 Z"
       id="path1" />
  </g>
</svg>
