<?xml version="1.0" encoding="UTF-8" standalone="no"?>
<!-- Created with Inkscape (http://www.inkscape.org/) -->

<svg
   version="1.1"
   id="i-eye"
   viewBox="0 0 512 512"
   sodipodi:docname="i-eye.svg"
   inkscape:version="1.3.2 (091e20ef0f, 2023-11-25, custom)"
   xmlns:inkscape="http://www.inkscape.org/namespaces/inkscape"
   xmlns:sodipodi="http://sodipodi.sourceforge.net/DTD/sodipodi-0.dtd"
   xmlns="http://www.w3.org/2000/svg"
   xmlns:svg="http://www.w3.org/2000/svg">
  <defs
     id="defs1" />
  <sodipodi:namedview
     id="namedview1"
     pagecolor="#ffffff"
     bordercolor="#000000"
     borderopacity="0.25"
     inkscape:showpageshadow="2"
     inkscape:pageopacity="0.0"
     inkscape:pagecheckerboard="true"
     inkscape:deskcolor="#d1d1d1"
     inkscape:zoom="0.5"
     inkscape:cx="257"
     inkscape:cy="255"
     inkscape:window-width="1134"
     inkscape:window-height="773"
     inkscape:window-x="26"
     inkscape:window-y="23"
     inkscape:window-maximized="0"
     inkscape:current-layer="g1" />
  <g
     inkscape:groupmode="layer"
     inkscape:label="Image"
     id="g1">
    <path
       style="display:inline;fill:var(--sappnite)"
       d="m 249.21818,510.39359 c -7.25081,-3.69899 -7.68586,-5.32566 -7.99506,-29.89359 -0.31088,-24.70185 0.15325,-26.87341 6.67476,-31.23007 7.12106,-4.75717 17.47217,-1.96947 21.35057,5.75 2.5095,4.99486 2.61078,43.36713 0.12826,48.59863 -3.35712,7.07462 -13.13173,10.35974 -20.15853,6.77503 z M 132.01993,488.24845 c -11.58263,-5.81932 -10.90734,-13.48978 3.37637,-38.35173 14.46193,-25.17215 20.64756,-29.68517 31.42173,-22.92519 9.99407,6.27053 9.13479,12.9539 -4.81932,37.48404 -14.60211,25.66928 -19.11505,29.251 -29.97878,23.79288 z M 367.5,488.58836 c -5.35503,-2.38007 -27.32426,-37.80419 -29.0065,-46.77134 -2.42731,-12.93865 14.98143,-22.44262 24.46538,-13.35642 5.95278,5.70313 24.28063,39.39128 24.77546,45.5394 0.91519,11.37113 -9.9111,19.17656 -20.23434,14.58836 z M 224,386.50435 C 150.95142,377.60811 77.841214,340.8931 21.950582,285.03772 -6.5197217,256.58537 -6.5701727,255.98609 17.421038,231.23371 153.38575,90.955255 352.15899,89.15882 490.04942,226.96228 c 29.06647,29.04814 29.06522,28.97593 0.99043,57.12227 C 416.92219,358.39111 314.79277,397.56158 224,386.50435 Z m 56.62782,-31.35152 C 367.094,332.46112 386.08247,218.85179 311.5,170.44248 243.62269,126.38529 154.76316,174.53983 154.54342,255.5 154.40123,307.89333 188.58181,347.71647 242,357.39398 c 6.73549,1.22024 30.7467,-0.17287 38.62782,-2.24115 z M 242,305.11221 c -48.66863,-15.75301 -49.74025,-81.45029 -1.59221,-97.61306 37.51868,-12.5946 75.08234,22.48485 65.10312,60.79766 -7.28445,27.96687 -37.22619,45.32322 -63.51091,36.8154 z m 21.78212,-29.66526 C 284.79215,266.67056 278.69864,235 256,235 c -14.56603,0 -25.01186,15.46015 -19.44695,28.78212 4.46081,10.67885 16.86665,15.99346 27.22907,11.66483 z M 149,334.44513 c 0,-0.30518 -1.73893,-3.11768 -3.86428,-6.25 -28.25601,-41.64335 -28.21809,-102.80346 0.0896,-144.5222 5.35826,-7.89679 4.96876,-7.88751 -11.32007,0.26982 -32.85134,16.45169 -63.539485,38.13687 -88.893805,62.81505 L 35.5,256.01559 46.233902,266.42871 C 70.94591,290.40219 100.84508,311.5063 133,327.6719 c 14.1933,7.13555 16,7.90038 16,6.77323 z m 227.24912,-5.40145 c 31.53563,-15.33247 64.52793,-38.46129 89.90816,-63.02892 L 476.5,256.00318 465.66199,245.48076 c -25.41212,-24.67212 -61.69029,-49.81263 -92.54612,-64.13381 -11.22702,-5.21081 -11.4097,-5.1438 -6.34119,2.32598 28.30769,41.71874 28.34561,102.87885 0.0896,144.5222 -5.79015,8.53345 -6.32239,8.48533 9.38484,0.84855 z M 152.5,86.040514 c -5.21291,-2.170428 -27.27754,-38.677542 -28.24387,-46.731002 -1.67717,-13.977578 13.16804,-22.555034 23.69949,-13.693398 3.70636,3.118695 24.61924,39.600759 25.55259,44.575932 C 175.54998,81.075664 163.11193,90.45886 152.5,86.040514 Z m 192.68197,-1.012045 c -10.01173,-6.281609 -9.14237,-12.93993 4.91685,-37.657715 13.70607,-24.096901 17.65469,-27.558823 27.92395,-24.482079 13.57478,4.067104 13.22225,13.604303 -1.44951,39.214606 -14.41593,25.163745 -20.61172,29.688557 -31.39129,22.925188 z M 247.89788,62.730067 C 241.56933,58.50232 241.0033,56.033512 241.00155,32.651129 240.9995,5.1175168 243.15357,0.5 256,0.5 c 12.84643,0 15.0005,4.6175168 14.99845,32.151129 C 270.99643,59.640737 268.51163,65 256,65 c -3.2261,0 -5.7719,-0.713244 -8.10212,-2.269933 z"
       id="path1" />
  </g>
</svg>
