<?xml version="1.0" encoding="UTF-8" standalone="no"?>
<!-- Created with Inkscape (http://www.inkscape.org/) -->

<svg
   version="1.1"
   id="i-glass"
   viewBox="0 0 512 512"
   sodipodi:docname="i-glass.svg"
   inkscape:version="1.3.2 (091e20ef0f, 2023-11-25, custom)"
   xmlns:inkscape="http://www.inkscape.org/namespaces/inkscape"
   xmlns:sodipodi="http://sodipodi.sourceforge.net/DTD/sodipodi-0.dtd"
   xmlns="http://www.w3.org/2000/svg"
   xmlns:svg="http://www.w3.org/2000/svg">
  <defs
     id="defs1" />
  <sodipodi:namedview
     id="namedview1"
     pagecolor="#ffffff"
     bordercolor="#000000"
     borderopacity="0.25"
     inkscape:showpageshadow="2"
     inkscape:pageopacity="0.0"
     inkscape:pagecheckerboard="true"
     inkscape:deskcolor="#d1d1d1"
     inkscape:zoom="0.5"
     inkscape:cx="257"
     inkscape:cy="255"
     inkscape:window-width="1499"
     inkscape:window-height="991"
     inkscape:window-x="26"
     inkscape:window-y="23"
     inkscape:window-maximized="0"
     inkscape:current-layer="g1" />
  <g
     inkscape:groupmode="layer"
     inkscape:label="Image"
     id="g1">
    <path
       style="fill:var(--sappnite)"
       d="m 488.75722,510.22378 c -2.31184,-1.06474 -21.23671,-18.94008 -49.5,-46.75482 -25.16647,-24.76707 -55.32333,-54.42387 -67.01524,-65.904 l -21.25802,-20.87297 -3.74198,2.75681 c -2.05809,1.51625 -8.2077,5.69482 -13.66581,9.28571 -5.4581,3.59089 -16.20783,9.5978 -23.88828,13.34869 -7.68046,3.75089 -19.63973,8.63098 -26.57618,10.84466 -6.93644,2.21368 -16.88671,4.91551 -22.11171,6.00407 -5.225,1.08857 -12.875,2.42383 -17,2.96726 -4.125,0.54343 -13.575,1.29593 -21,1.67224 -8.27085,0.41916 -18.3418,0.22626 -26,-0.49803 -6.875,-0.65022 -18.125,-2.30301 -25,-3.67286 -6.875,-1.36986 -18.40642,-4.45884 -25.62538,-6.86441 -7.21895,-2.40556 -17.79395,-6.58806 -23.5,-9.29445 -5.70604,-2.70638 -14.49228,-7.43114 -19.52498,-10.49945 C 98.316947,389.67392 89.808327,383.92051 84.441599,379.95687 79.07487,375.99323 69.218277,367.29395 62.538058,360.62513 55.85784,353.95631 47.654221,344.88009 44.307795,340.45576 40.961369,336.03143 35.680609,328.51056 32.572773,323.74272 29.464936,318.97488 24.250538,309.54478 20.985221,302.78696 17.719903,296.02913 13.064393,284.425 10.639643,277 8.2148928,269.575 5.2832785,258.55 4.1249448,252.5 2.966611,246.45 1.5646346,236.83982 1.0094417,231.14405 0.45424876,225.44827 0,216.83345 0,212 0,207.16655 0.45424876,198.55173 1.0094417,192.85595 1.5646346,187.16018 2.966611,177.55 4.1249448,171.5 c 1.1583337,-6.05 4.089948,-17.075 6.5146982,-24.5 2.42475,-7.425 7.08026,-19.02913 10.345578,-25.78696 3.265317,-6.75782 8.479715,-16.18792 11.587552,-20.95576 C 35.680609,95.489439 40.961369,87.96857 44.307795,83.544239 47.654221,79.119907 55.875058,70.026575 62.576321,63.336833 69.277584,56.647091 78.996679,48.031182 84.174311,44.190369 89.351943,40.349556 97.843345,34.613261 103.04409,31.443046 108.24484,28.272832 117,23.545623 122.5,20.938137 c 5.5,-2.607486 14.68982,-6.372019 20.42182,-8.365629 5.732,-1.99361 14.732,-4.7029093 20,-6.0206657 5.268,-1.3177564 14.22424,-3.1206867 19.90275,-4.0065118 5.67852,-0.8858251 16.70352,-1.88122009 24.5,-2.21198881 8.32605,-0.35323562 19.33346,-0.11099947 26.67543,0.58703679 6.875,0.65363892 18.125,2.30922752 25,3.67908562 6.875,1.3698582 18.40642,4.4588389 25.62538,6.8644019 7.21895,2.405563 17.79395,6.588066 23.5,9.294452 5.70604,2.706386 14.5825,7.485847 19.72547,10.621024 5.14296,3.135177 13.91796,9.157496 19.5,13.382931 5.58203,4.225435 15.17772,12.709216 21.32374,18.852847 6.14603,6.14363 15.15187,16.506032 20.01299,23.027559 4.86111,6.521526 11.04388,15.622811 13.73947,20.225071 2.6956,4.60226 7.123,13.34716 9.83868,19.43311 2.71567,6.08596 6.4737,15.75473 8.35118,21.48616 1.87748,5.73143 4.50896,15.88653 5.84774,22.56688 1.33877,6.68036 2.94247,17.7711 3.56376,24.6461 0.62538,6.92022 0.84567,17.6334 0.4935,24 -0.34987,6.325 -1.31766,16.45 -2.15064,22.5 -0.83299,6.05 -2.59208,15.275 -3.90909,20.5 -1.31702,5.225 -3.69898,13.34201 -5.29324,18.0378 -1.59427,4.69579 -4.86304,12.79579 -7.26394,18 -2.4009,5.20421 -6.87787,13.7372 -9.94883,18.9622 -3.07095,5.225 -7.98803,12.875 -10.92685,17 -2.93882,4.125 -7.82474,10.3377 -10.8576,13.80599 l -5.51428,6.306 2.42128,2.28045 c 1.3317,1.25425 31.77763,31.19381 67.65761,66.53235 53.65411,52.84445 65.43926,64.92925 66.37938,68.06709 0.62869,2.09836 0.85853,5.32111 0.51077,7.16166 -0.34776,1.84055 -1.48702,4.74753 -2.53167,6.45995 -1.04466,1.71242 -3.88543,4.07492 -6.31282,5.25 -2.42739,1.17508 -5.73386,2.12471 -7.34771,2.11029 -1.61386,-0.0144 -4.61853,-0.80193 -6.67706,-1.75 z M 241.38067,389.42204 c 5.56563,-0.86788 14.39433,-2.65256 19.61933,-3.96595 5.225,-1.3134 13.1,-3.71868 17.5,-5.34506 4.4,-1.62638 11.15,-4.38887 15,-6.13887 3.85,-1.74999 10.825,-5.4702 15.5,-8.26714 4.675,-2.79693 12.55,-8.10282 17.5,-11.79085 4.95,-3.68804 13.21383,-10.91497 18.36406,-16.05985 5.15023,-5.14487 12.04312,-12.85517 15.31753,-17.134 3.27441,-4.27882 8.12559,-11.28185 10.7804,-15.56228 2.65481,-4.28044 6.61451,-11.35458 8.79933,-15.72032 2.18483,-4.36575 5.81121,-13.33772 8.05864,-19.93772 2.24742,-6.6 5.01874,-16.62667 6.15848,-22.28149 1.13975,-5.65482 2.50053,-15.89232 3.02396,-22.75 0.60227,-7.89046 0.60227,-17.04656 0,-24.93702 -0.52343,-6.85768 -1.88433,-17.09518 -3.02422,-22.75 -1.1399,-5.65482 -3.89096,-15.65695 -6.11349,-22.22696 -2.22253,-6.57 -6.03648,-15.91879 -8.47545,-20.77507 -2.43898,-4.85629 -6.51671,-12.08083 -9.06163,-16.05454 C 367.78268,113.75122 363.12815,107.125 359.9842,103 356.84025,98.875 350.12793,91.346748 345.06793,86.27055 340.00794,81.194353 331.73515,73.958963 326.68397,70.191905 321.63279,66.424848 313.675,61.062769 309,58.276175 c -4.675,-2.786594 -11.65,-6.501944 -15.5,-8.256333 -3.85,-1.754388 -10.51764,-4.501352 -14.81699,-6.104365 -4.29934,-1.603012 -12.17434,-4.00469 -17.5,-5.337062 C 255.85736,37.246044 246.9463,35.445839 241.38067,34.577961 235.36159,33.639373 224.92529,33 215.62409,33 c -8.92089,0 -20.00614,0.656197 -25.80904,1.527779 -5.59448,0.840278 -14.56138,2.640483 -19.92643,4.000455 -5.36506,1.359971 -13.48816,3.849266 -18.05135,5.531765 -4.56318,1.6825 -11.90582,4.753775 -16.31698,6.825056 -4.41116,2.071281 -11.71944,6.064097 -16.24061,8.872924 -4.52118,2.808827 -11.90219,7.909719 -16.40224,11.335314 -4.500045,3.425596 -12.403838,10.477834 -17.563981,15.671639 -5.160143,5.193806 -11.976843,12.883934 -15.148221,17.089178 -3.171379,4.20524 -7.604108,10.59029 -9.850508,14.189 -2.246401,3.59871 -5.966905,10.2873 -8.267788,14.86353 -2.300882,4.57622 -5.507262,11.75683 -7.125287,15.95689 C 43.30363,153.06359 40.877084,160.55 39.52933,165.5 c -1.347753,4.95 -3.207798,13.5 -4.133432,19 -1.13223,6.72756 -1.682972,15.72676 -1.682972,27.5 0,11.77324 0.550742,20.77244 1.682972,27.5 0.925634,5.5 2.785679,14.05 4.133432,19 1.347754,4.95 3.7743,12.43641 5.392325,16.63647 1.618025,4.20006 4.824405,11.38067 7.125287,15.95689 2.300883,4.57623 6.014667,11.26482 8.252854,14.86353 2.238187,3.59871 6.887013,10.19316 10.330725,14.65432 3.443711,4.46117 10.297497,12.17442 15.230634,17.14055 4.933137,4.96613 12.620833,11.80897 17.083765,15.20631 4.46294,3.39735 11.81358,8.47467 16.33476,11.28295 4.52117,2.80828 12.04532,6.87847 16.72032,9.04487 4.675,2.16639 12.00283,5.23265 16.28406,6.81391 4.28124,1.58126 11.48124,3.83046 16,4.99823 4.51877,1.16776 12.94094,2.9314 18.71594,3.91919 7.01592,1.20005 16.10129,1.82698 27.38067,1.88938 10.88558,0.0602 20.4745,-0.46701 27,-1.48456 z"
       id="path1" />
  </g>
</svg>
