<?xml version="1.0" encoding="UTF-8" standalone="no"?>
<!-- Created with Inkscape (http://www.inkscape.org/) -->

<svg
   version="1.1"
   id="i-thumb"
   viewBox="0 0 499 442"
   sodipodi:docname="i-thumb.svg"
   inkscape:version="1.3.2 (091e20ef0f, 2023-11-25, custom)"
   xmlns:inkscape="http://www.inkscape.org/namespaces/inkscape"
   xmlns:sodipodi="http://sodipodi.sourceforge.net/DTD/sodipodi-0.dtd"
   xmlns="http://www.w3.org/2000/svg"
   xmlns:svg="http://www.w3.org/2000/svg">
  <defs
     id="defs1" />
  <sodipodi:namedview
     id="namedview1"
     pagecolor="#ffffff"
     bordercolor="#000000"
     borderopacity="0.25"
     inkscape:showpageshadow="2"
     inkscape:pageopacity="0.0"
     inkscape:pagecheckerboard="true"
     inkscape:deskcolor="#d1d1d1"
     inkscape:zoom="0.5"
     inkscape:cx="250"
     inkscape:cy="221"
     inkscape:window-width="1499"
     inkscape:window-height="991"
     inkscape:window-x="26"
     inkscape:window-y="23"
     inkscape:window-maximized="0"
     inkscape:current-layer="g1" />
  <g
     inkscape:groupmode="layer"
     inkscape:label="Image"
     id="g1">
    <path
       style="fill:var(--sappnite)"
       d="m 11.120865,439.11563 c -1.8585238,-0.9903 -5.1210238,-4.39184 -7.2499997,-7.55897 L 0,425.79823 0,320.5992 0,215.40017 4.5698286,209.11988 C 7.4491153,205.16289 10.396718,202.31436 12.53771,201.4198 15.374922,200.23433 28.886555,200 94.402782,200 c 47.724898,0 79.456508,0.3762 80.992628,0.96023 2.16328,0.82248 3.21852,0.41252 7.35548,-2.85756 12.17469,-9.62354 25.03328,-27.85496 46.22177,-65.53511 3.99973,-7.11285 9.03682,-15.81543 11.19352,-19.33907 C 248.55774,99.5183 249.88566,93.005634 251.01935,60 251.51998,45.425 252.3641,31.025 252.89519,28 255.19975,14.87343 259.8125,7.7087816 268.7924,3.3080033 274.18282,0.66632094 275.25022,0.51057712 288,0.50543971 c 11.36092,-0.004578 14.67638,0.36402343 20.92433,2.32629349 6.43811,2.0219964 8.23726,3.1510972 13.54418,8.4999998 6.77077,6.824316 8.69879,10.427564 17.74766,33.168267 7.0229,17.649222 12.47515,35.928836 13.33979,44.723941 0.44379,4.51427 -0.23496,12.030729 -2.41791,26.776059 -1.66919,11.275 -3.75782,26.125 -4.64138,33 -0.88357,6.875 -1.85086,13.49379 -2.14955,14.70843 l -0.54307,2.20843 64.34798,0.29157 c 63.24296,0.28656 64.42525,0.32809 68.84797,2.41847 6.09062,2.8787 10.82664,8.15523 16.90212,18.83114 5.06663,8.90312 5.09788,9.01203 5.09788,17.76601 0,8.38254 -0.26566,9.45638 -5.5,22.23184 -3.025,7.38312 -5.5,14.54799 -5.5,15.92193 0,1.37394 0.69365,5.48906 1.54146,9.1447 2.48147,10.69992 0.87065,19.3148 -6.15972,32.94279 l -5.65674,10.9653 1.30633,11.34139 c 2.03485,17.66625 -0.6247,29.26714 -9.32047,40.65564 l -3.42829,4.48989 1.99087,5.79124 c 2.60682,7.58297 2.75066,20.55042 0.31935,28.79123 -5.78361,19.60328 -20.81086,34.00493 -39.09279,37.46533 -4.31453,0.81666 -37.33904,1.05127 -117.56216,0.83518 L 200.37568,425.5 189.93784,420.23745 c -6.27072,-3.16157 -11.73534,-5.25754 -13.68784,-5.25 -2.89497,0.0112 -3.25,0.32044 -3.25,2.83105 0,5.50613 -2.90769,12.75586 -6.59492,16.44309 -6.91035,6.91035 -4.85491,6.74317 -82.333219,6.69649 -65.038205,-0.0392 -69.792063,-0.15924 -72.950996,-1.84245 z M 145.75,419.5182 C 146.73863,419.158 147,398.14693 147,319.03138 V 219 H 84.646183 22.292366 l -0.64269,48.75 c -0.35348,26.8125 -0.933997,72.375 -1.290038,101.25 l -0.647346,52.5 62.393854,-0.76319 C 116.42277,420.31706 145.0625,419.76868 145.75,419.5182 Z M 415.5,406.01386 c 13.57842,-2.2055 24.2283,-8.64063 28.65274,-17.31325 6.09352,-11.94429 1.78801,-28.02384 -8.22574,-30.72027 -2.15985,-0.58158 -3.927,-1.44347 -3.927,-1.91529 0,-1.3181 6.03442,-6.09268 13.89621,-10.99501 C 455.30356,339.20394 458,334.23637 458,322.77154 c 0,-4.35575 -0.60579,-9.28564 -1.36403,-11.10035 -1.68932,-4.04311 -6.60019,-8.28478 -10.61202,-9.16593 C 443.3775,301.924 443,301.41408 443,298.42054 443,295.51637 443.34777,295 445.30366,295 c 3.9419,0 12.49368,-4.96286 16.6101,-9.63937 6.30884,-7.16721 8.67018,-17.35095 6.10068,-26.31028 -1.32011,-4.60296 -7.60358,-10.86263 -12.12644,-12.08051 -2.96379,-0.79806 -3.74387,-1.53445 -4.08457,-3.85578 -0.39337,-2.6802 -0.0868,-2.97472 4.65155,-4.46835 6.82313,-2.1508 12.39903,-5.93882 16.15549,-10.97532 C 476.85464,221.97998 478,218.02556 478,209.06267 478,197.72505 475.61658,193.56086 466.51693,189 l -6.98307,-3.5 -70.37433,0.37723 -70.37433,0.37723 0.61617,-2.87723 c 0.33889,-1.58248 2.64424,-15.02723 5.12299,-29.87723 2.47876,-14.85 5.64924,-33.43348 7.04552,-41.29662 1.76121,-9.91825 2.32884,-15.73703 1.85348,-18.999995 C 331.60375,80.71314 318.42975,39.949379 313.42511,31.32362 306.11935,18.731772 291.3198,15.52897 277.58014,23.566335 l -6.21646,3.636475 -1.08261,33.648595 c -1.24712,38.7613 -1.99215,43.087425 -10.06349,58.434505 -10.63409,20.21996 -48.64324,78.16364 -57.06352,86.99143 -3.05154,3.19921 -11.76971,10.57501 -19.37371,16.39065 -7.604,5.81565 -14.71531,11.70516 -15.8029,13.08781 C 166.04673,238.21031 166,240.07426 166,314.63486 V 391 h 6.81873 c 6.23922,0 7.3653,0.34346 13.25,4.04134 8.53149,5.3611 18.27591,9.92484 23.3305,10.92672 5.99146,1.18756 198.80755,1.23041 206.10077,0.0458 z"
       id="path1" />
  </g>
</svg>
