<?xml version="1.0" encoding="UTF-8" standalone="no"?>
<!-- Created with Inkscape (http://www.inkscape.org/) -->

<svg
   version="1.1"
   id="i-eye"
   viewBox="0 0 128 128"
   width="128"
   height="128"
   xmlns="http://www.w3.org/2000/svg"
   xmlns:svg="http://www.w3.org/2000/svg">
  <defs
     id="defs1" />
  <g
     id="g1"
     transform="translate(0.02478878,-0.5)">
    <path
       style="stroke-width:0.250157"
       d="m 62.286076,128.13378 c -1.812705,-0.92592 -1.92147,-1.33309 -1.99877,-7.4828 -0.07772,-6.18324 0.0383,-6.72681 1.668695,-7.81734 1.780265,-1.19079 4.36805,-0.49299 5.33765,1.4393 0.62738,1.25029 0.6527,10.85543 0.03205,12.16495 -0.83928,1.77088 -3.282935,2.59319 -5.03964,1.69589 z m -29.299621,-5.54325 c -2.895663,-1.45667 -2.72684,-3.37669 0.844095,-9.6 3.615489,-6.30096 5.1619,-7.43063 7.855447,-5.73851 2.498523,1.56961 2.283702,3.24255 -1.204832,9.3828 -3.650535,6.4254 -4.778772,7.32195 -7.49471,5.95571 z m 58.870131,0.0851 c -1.33876,-0.59577 -6.831075,-9.46294 -7.251635,-11.70755 -0.60683,-3.23873 3.745365,-5.61771 6.116355,-3.3433 1.4882,1.42757 6.07017,9.86021 6.193875,11.39917 0.2288,2.84636 -2.47778,4.80017 -5.058595,3.65168 z M 55.981516,97.122499 C 37.719337,94.895639 19.44175,85.705339 5.4690646,71.723929 -1.6485252,64.601889 -1.6611379,64.451884 4.3366764,58.255999 38.327921,23.142265 88.021326,22.692591 122.494,57.186799 c 7.26664,7.271175 7.26632,7.253095 0.24761,14.298535 -18.52945,18.600015 -44.061854,28.40495 -66.760094,25.637165 z m 14.156985,-7.84774 c 21.616585,-5.680065 26.363715,-34.118135 7.71806,-46.235686 -16.96936,-11.028155 -39.184287,1.025626 -39.239222,21.291131 -0.03554,13.114815 8.509614,23.083125 21.864187,25.505545 1.683875,0.305445 7.68669,-0.04325 9.656975,-0.56099 z M 60.481526,76.748864 c -12.167181,-3.94321 -12.435086,-20.38819 -0.398055,-24.43397 9.37969,-3.15261 18.770625,5.628285 16.275815,15.21854 -1.821115,7.000515 -9.306565,11.34506 -15.87776,9.21543 z m 5.44554,-7.425645 c 5.25252,-2.19686 3.72914,-10.12446 -1.94553,-10.12446 -3.641515,0 -6.25298,3.8699 -4.86175,7.20458 1.115205,2.673075 4.21667,4.0034 6.80728,2.91988 z m -28.695585,14.7681 c 0,-0.07639 -0.434733,-0.7804 -0.966072,-1.564465 -7.064016,-10.423935 -7.054536,-25.7332 0.0224,-36.176007 1.339568,-1.976681 1.242193,-1.974358 -2.830023,0.06754 -8.212851,4.118098 -15.884902,9.546213 -22.223494,15.723518 l -2.3778664,2.31736 2.6834814,2.606555 c 6.178014,6.000915 13.652821,11.28358 21.691566,15.330065 3.548332,1.78613 4.000008,1.97758 4.000008,1.695435 z m 56.81239,-1.35206 c 7.883929,-3.83794 16.132019,-9.62742 22.477089,-15.777055 l 2.58568,-2.506045 -2.70951,-2.633915 c -6.35304,-6.17579 -15.4226,-12.468825 -23.136574,-16.053624 -2.80676,-1.304341 -2.85243,-1.287567 -1.5853,0.582227 7.076939,10.442807 7.086419,25.752072 0.0224,36.176007 -1.44754,2.136045 -1.5806,2.124 2.346215,0.212405 z M 38.106483,21.912034 c -1.30323,-0.54329 -6.819398,-9.681551 -7.060981,-11.697449 -0.419294,-3.4987911 3.292016,-5.6458529 5.924884,-3.4276566 0.926591,0.7806545 6.154822,9.9126456 6.38816,11.1580036 0.510443,2.724328 -2.599075,5.073078 -5.252063,3.967102 z m 48.170588,-0.25333 c -2.50294,-1.572378 -2.2856,-3.239052 1.229215,-9.426273 3.426525,-6.0318046 4.41368,-6.8983741 6.981,-6.1282201 3.3937,1.018055 3.30557,3.4053545 -0.36238,9.8159861 -3.60399,6.298851 -5.15294,7.431477 -7.847835,5.738507 z M 61.956001,16.07709 C 60.373861,15.018824 60.232351,14.400845 60.231916,8.5478949 60.231401,1.6558316 60.769921,0.5 63.981536,0.5 c 3.21161,0 3.75013,1.1558316 3.749615,8.0478949 -5e-4,6.7558911 -0.621705,8.0973921 -3.749615,8.0973921 -0.80653,0 -1.44298,-0.178535 -2.025535,-0.568197 z"
       id="path1" />
  </g>
</svg>
