<?xml version="1.0" encoding="UTF-8" standalone="no"?>
<svg
   version="1.1"
   id="i-glass"
   viewBox="0 0 128 128"
   width="128"
   height="128"
   xmlns="http://www.w3.org/2000/svg"
   xmlns:svg="http://www.w3.org/2000/svg">
  <defs
     id="defs1" />
  <g
     id="g1"
     transform="translate(0,-0.17233741)">
    <path
       d="m 122.23974,127.73463 c -0.5782,-0.26629 -5.31137,-4.73686 -12.38011,-11.69324 -6.29422,-6.19417 -13.836542,-13.61124 -16.760726,-16.482386 l -5.316698,-5.220265 -0.935881,0.68947 c -0.514735,0.379209 -2.052772,1.424257 -3.417863,2.322327 -1.365088,0.898071 -4.05363,2.40038 -5.974535,3.338464 -1.920907,0.93809 -4.911959,2.15858 -6.646787,2.71222 -1.734826,0.55363 -4.22342,1.22935 -5.530209,1.5016 -1.306789,0.27225 -3.220079,0.60619 -4.251754,0.7421 -1.031676,0.13591 -3.395151,0.32411 -5.252167,0.41822 -2.068566,0.10483 -4.587343,0.0566 -6.502683,-0.12455 -1.719459,-0.16262 -4.53312,-0.57598 -6.252579,-0.91857 -1.71946,-0.3426 -4.603505,-1.11515 -6.40899,-1.71677 -1.805482,-0.60163 -4.450323,-1.64766 -5.877424,-2.32452 -1.427099,-0.67685 -3.624566,-1.858501 -4.88326,-2.625875 C 24.589381,97.58548 22.461349,96.14657 21.119113,95.155276 19.776877,94.163981 17.311711,91.988318 15.640967,90.320467 13.970224,88.652616 11.918472,86.382681 11.081521,85.27617 10.244569,84.169659 8.9238339,82.288712 8.1465542,81.09629 7.3692743,79.903868 6.0651368,77.545429 5.2484706,75.85532 4.4318042,74.165207 3.2674463,71.26305 2.6610086,69.40608 2.0545708,67.549111 1.3213648,64.791792 1.0316618,63.278706 0.74195886,61.76562 0.39132009,59.362144 0.25246458,57.937649 0.11360906,56.513152 0,54.358612 0,53.149781 0,51.94095 0.11360906,49.786411 0.25246458,48.361914 0.39132009,46.937419 0.74195886,44.533943 1.0316618,43.020856 c 0.289703,-1.513086 1.022909,-4.270404 1.6293468,-6.127374 0.6064377,-1.856969 1.7707956,-4.759126 2.587462,-6.449239 0.8166662,-1.69011 2.1208037,-4.048549 2.8980836,-5.240971 0.7772797,-1.192422 2.0980148,-3.073368 2.9349668,-4.17988 0.836951,-1.106511 2.893009,-3.380726 4.569016,-5.053809 1.676007,-1.673084 4.106784,-3.827896 5.401726,-4.788472 1.294942,-0.960575 3.418669,-2.395205 4.719392,-3.188066 1.300724,-0.7928607 3.490418,-1.9751211 4.865985,-2.6272453 1.375568,-0.6521242 3.673971,-1.5936222 5.107562,-2.092218 1.433592,-0.4985957 3.68452,-1.176183 5.002064,-1.5057498 1.317543,-0.3295668 3.557528,-0.78047414 4.977741,-1.00201626 1.420216,-0.22154212 4.177604,-0.47048733 6.127528,-0.55321157 2.082372,-0.0883431 4.83536,-0.0277606 6.67161,0.14681609 1.719459,0.16347307 4.53312,0.57753067 6.25258,0.92012794 1.719459,0.3425973 4.603504,1.1151418 6.408989,1.7167657 1.805482,0.6016239 4.450323,1.647655 5.877425,2.3245137 1.427098,0.6768588 3.647129,1.8721872 4.933402,2.6562853 1.286271,0.7840981 3.480926,2.2902612 4.877012,3.3470302 1.396084,1.056768 3.795997,3.178535 5.333136,4.715038 1.537141,1.536503 3.789531,4.128108 5.005312,5.759122 1.215779,1.631013 2.76211,3.907216 3.436289,5.058227 0.67417,1.151011 1.78148,3.338084 2.46068,4.860161 0.6792,1.52208 1.61909,3.940209 2.08866,5.373622 0.46956,1.433413 1.1277,3.973172 1.46254,5.643907 0.33483,1.670738 0.73592,4.444498 0.8913,6.163914 0.15641,1.730725 0.21151,4.410059 0.12343,6.002326 -0.0875,1.581863 -0.32955,4.114094 -0.53788,5.62718 -0.20833,1.513086 -0.64829,3.82023 -0.97768,5.126987 -0.32939,1.306756 -0.92512,3.336795 -1.32385,4.511198 -0.39874,1.174402 -1.21627,3.200187 -1.81674,4.501744 -0.60047,1.301557 -1.72018,3.435632 -2.48823,4.742388 -0.768057,1.306756 -1.997834,3.219998 -2.732842,4.251647 -0.735008,1.03165 -1.956993,2.585427 -2.71552,3.452836 l -1.379139,1.577111 0.605569,0.570333 c 0.333063,0.313684 7.947682,7.801476 16.921382,16.639536 13.41907,13.21623 16.36657,16.2386 16.6017,17.02337 0.15723,0.52479 0.21472,1.33079 0.12774,1.79111 -0.087,0.46031 -0.37191,1.18734 -0.63318,1.61561 -0.26127,0.42827 -0.97176,1.01913 -1.57885,1.31301 -0.6071,0.29388 -1.43406,0.53138 -1.83769,0.52778 -0.40363,-0.004 -1.15511,-0.20056 -1.66995,-0.43767 z M 60.370074,97.522485 c 1.391982,-0.217054 3.600068,-0.663397 4.906857,-0.991872 1.306789,-0.328477 3.276352,-0.93003 4.376806,-1.336782 1.100454,-0.406753 2.78865,-1.097643 3.751547,-1.535313 0.962898,-0.437667 2.707367,-1.36808 3.8766,-2.067586 1.169232,-0.699504 3.138795,-2.02649 4.376805,-2.948855 1.238011,-0.922368 3.304821,-2.729801 4.59291,-4.016519 1.288089,-1.286716 3.012023,-3.215038 3.830963,-4.285161 0.818941,-1.070119 2.032236,-2.821555 2.696213,-3.892078 0.663976,-1.070525 1.65431,-2.839745 2.20074,-3.931603 0.546433,-1.091861 1.453402,-3.335723 2.015492,-4.986362 0.562087,-1.65064 1.255203,-4.158279 1.540255,-5.572532 0.285055,-1.414253 0.625391,-3.97462 0.756302,-5.689705 0.15063,-1.97338 0.15063,-4.263292 0,-6.236672 -0.130911,-1.715084 -0.471277,-4.275451 -0.756367,-5.689704 -0.285092,-1.414253 -0.973141,-3.915755 -1.529003,-5.558894 -0.555862,-1.643137 -1.509743,-3.98124 -2.119737,-5.195781 -0.609997,-1.214543 -1.62985,-3.021378 -2.266343,-4.015191 -0.636495,-0.99381 -1.800608,-2.651007 -2.586919,-3.682657 -0.786312,-1.03165 -2.465085,-2.914442 -3.730607,-4.183984 -1.26552,-1.269541 -3.334571,-3.07909 -4.597887,-4.021219 -1.263316,-0.942129 -3.253585,-2.283169 -4.422817,-2.980087 -1.169233,-0.696919 -2.913702,-1.626116 -3.8766,-2.064884 C 72.442387,12.200277 70.774789,11.51327 69.699508,11.112361 68.624229,10.711453 66.654667,10.110801 65.322702,9.7775787 63.99074,9.4443569 61.762056,8.9941312 60.370074,8.7770776 58.864683,8.5423396 56.254531,8.3824344 53.928271,8.3824344 c -2.231143,0 -5.003599,0.1641128 -6.454923,0.3820928 -1.399197,0.2101509 -3.641847,0.6603766 -4.983663,1.0005014 -1.341819,0.3401244 -3.373432,0.9626894 -4.5147,1.3834774 -1.141266,0.420788 -2.977684,1.188904 -4.080929,1.706925 -1.103245,0.518021 -2.931069,1.516612 -4.061828,2.219091 -1.130762,0.702479 -2.976776,1.978197 -4.102253,2.834927 -1.125475,0.856731 -3.102239,2.620474 -4.392807,3.919429 -1.290568,1.298955 -2.995447,3.222232 -3.788619,4.27395 -0.793172,1.051718 -1.901811,2.648599 -2.463643,3.548625 -0.561832,0.900027 -1.492342,2.572822 -2.0678,3.717323 -0.575458,1.144499 -1.377384,2.940347 -1.782057,3.990769 -0.404673,1.050422 -1.01156,2.92275 -1.3486377,4.16073 -0.3370773,1.23798 -0.8022805,3.376308 -1.0337845,4.751841 -0.2831743,1.682542 -0.4209167,3.933214 -0.4209167,6.877665 0,2.944451 0.1377424,5.195123 0.4209167,6.877665 0.231504,1.375533 0.6967072,3.513862 1.0337845,4.751842 0.3370777,1.237979 0.9439647,3.110307 1.3486377,4.160729 0.404673,1.050422 1.206599,2.846271 1.782057,3.990769 0.575458,1.144501 1.504287,2.817297 2.064065,3.717323 0.559778,0.900026 1.722464,2.549278 2.583747,3.665 0.861283,1.115725 2.575437,3.044785 3.80923,4.286799 1.233793,1.242014 3.156511,2.953387 4.272704,3.803051 1.116196,0.849667 2.954614,2.119489 4.085376,2.821831 1.130759,0.702342 3.012573,1.720284 4.181805,2.262094 1.169232,0.541808 3.001946,1.30867 4.072695,1.704138 1.070752,0.395468 2.871495,0.957986 4.001651,1.250042 1.130159,0.292053 3.23657,0.733134 4.680916,0.980177 1.754704,0.300129 4.026984,0.456922 6.847993,0.472528 2.722518,0.01506 5.120738,-0.116798 6.752786,-0.371284 z"
       id="path1"
       style="stroke-width:0.2501" />
  </g>
</svg>
