<?xml version="1.0" encoding="UTF-8" standalone="no"?>
<!-- Created with Inkscape (http://www.inkscape.org/) -->

<svg
   version="1.1"
   id="i-thumb"
   viewBox="0 0 128 128.00003"
   width="128"
   height="128.00003"
   xmlns="http://www.w3.org/2000/svg"
   xmlns:svg="http://www.w3.org/2000/svg">
  <defs
     id="defs1" />
  <g
     id="g1"
     transform="translate(0,-0.50539786)">
    <path
       style="stroke-width:0.273026"
       d="M 2.8526467,127.96695 C 2.3759112,127.67916 1.5390374,126.69066 0.99292737,125.77029 L 0,124.09687 V 93.52569 62.954512 L 1.1722206,61.12944 c 0.7385745,-1.149914 1.494673,-1.977706 2.0438653,-2.237668 0.7277819,-0.344502 4.1936917,-0.412599 20.9994571,-0.412599 12.242058,0 20.38163,0.109325 20.775664,0.279046 0.55491,0.239015 0.825593,0.11988 1.886777,-0.830416 3.122966,-2.796632 6.421362,-8.094741 11.856486,-19.044715 1.025983,-2.067017 2.318062,-4.596015 2.871284,-5.619996 2.152544,-3.984225 2.493173,-5.876827 2.783979,-15.468371 0.128418,-4.235542 0.344946,-8.4202282 0.481177,-9.299303 0.59115,-3.8146236 1.774381,-5.8966936 4.077842,-7.1755739 1.382713,-0.76768147 1.656515,-0.81294113 4.927,-0.81443407 2.914223,-0.00133 3.764682,0.10578638 5.367363,0.67602837 1.651459,0.5875987 2.112964,0.915719 3.474258,2.4701274 1.736791,1.9831683 2.231353,3.0302838 4.552506,9.6388052 1.801466,5.128921 3.200039,10.441036 3.42183,12.996922 0.113838,1.311861 -0.06027,3.496169 -0.620225,7.781209 -0.428169,3.276551 -0.96393,7.592009 -1.190575,9.589907 -0.226647,1.997897 -0.474769,3.921338 -0.551387,4.274317 l -0.139305,0.641777 16.506093,0.08473 c 16.22265,0.08328 16.52592,0.09534 17.6604,0.702815 1.56233,0.83656 2.77718,2.369936 4.33562,5.47239 1.29965,2.587276 1.30767,2.618925 1.30767,5.16286 0,2.435993 -0.0682,2.748055 -1.41082,6.460644 -0.77595,2.145559 -1.41082,4.227693 -1.41082,4.626965 0,0.399271 0.17793,1.595138 0.3954,2.657479 0.63653,3.109431 0.22333,5.612943 -1.58005,9.573281 l -1.45102,3.186552 0.33509,3.295844 c 0.52196,5.13387 -0.16025,8.505126 -2.39083,11.814657 l -0.8794,1.30478 0.51069,1.68295 c 0.66868,2.20364 0.70558,5.97202 0.0819,8.36683 -1.48357,5.69677 -5.33825,9.88194 -10.02781,10.88754 -1.10673,0.23733 -9.57795,0.30551 -30.156221,0.24271 l -28.617137,-0.0873 -2.677442,-1.52931 c -1.608521,-0.91877 -3.010267,-1.52786 -3.511109,-1.52567 -0.742598,0.003 -0.833667,0.0931 -0.833667,0.82271 0,1.6001 -0.745861,3.7069 -1.691683,4.77842 -1.772595,2.00817 -1.245348,1.95958 -21.119544,1.94602 C 4.8823807,128.491 3.6629542,128.4561 2.8526467,127.96698 Z m 34.5341273,-5.69508 c 0.253596,-0.10467 0.320641,-6.21056 0.320641,-29.201794 V 64.000634 H 21.712849 5.7182823 L 5.5534239,78.167542 C 5.4627517,85.959341 5.3138415,99.19995 5.2225124,107.59112 L 5.0564597,122.84779 21.061296,122.626 c 8.802661,-0.12198 16.149125,-0.28134 16.325478,-0.35413 z m 69.194386,-3.9244 c 3.48304,-0.64093 6.21488,-2.511 7.3498,-5.03129 1.56307,-3.47105 0.45865,-8.14382 -2.11001,-8.92741 -0.55403,-0.16901 -1.00732,-0.41948 -1.00732,-0.55659 0,-0.38304 1.5479,-1.77055 3.56456,-3.19518 2.4131,-1.704713 3.10478,-3.148304 3.10478,-6.480021 0,-1.265795 -0.1554,-2.698437 -0.3499,-3.225798 -0.43333,-1.17494 -1.69303,-2.407583 -2.72212,-2.663648 -0.67885,-0.168916 -0.77568,-0.317101 -0.77568,-1.187033 0,-0.843961 0.0892,-0.99402 0.59092,-0.99402 1.01115,0 3.20479,-1.442223 4.26071,-2.801232 1.6183,-2.082815 2.22401,-5.042242 1.5649,-7.645853 -0.33863,-1.337635 -1.95042,-3.156715 -3.11059,-3.510635 -0.76025,-0.231919 -0.96035,-0.445916 -1.04774,-1.120502 -0.10091,-0.778875 -0.0223,-0.864463 1.19318,-1.298517 1.75022,-0.625029 3.18051,-1.72584 4.14409,-3.189463 1.08869,-1.653652 1.38249,-2.802819 1.38249,-5.407464 0,-3.294749 -0.61138,-4.504876 -2.94556,-5.830276 l -1.79125,-1.017112 -18.051931,0.109625 -18.051933,0.109624 0.158056,-0.836132 c 0.08693,-0.459874 0.678282,-4.366962 1.314114,-8.68242 0.635834,-4.315458 1.449103,-9.715877 1.807267,-12.000931 0.451774,-2.882275 0.597378,-4.573232 0.475442,-5.52146 C 85.060681,23.814027 81.681379,11.967946 80.397623,9.4612727 78.523601,5.802041 74.727323,4.8712964 71.202922,7.2069806 l -1.594603,1.0567714 -0.277704,9.77839 c -0.319902,11.264159 -0.511012,12.521345 -2.581416,16.981256 -2.727783,5.875986 -12.477625,22.714606 -14.637536,25.27999 -0.78276,0.929701 -3.019084,3.073132 -4.969609,4.763176 -1.950525,1.690047 -3.774669,3.401558 -4.05365,3.80336 -0.495255,0.713289 -0.507242,1.254958 -0.507242,22.922509 v 22.191957 h 1.749093 c 1.600442,0 1.889296,0.0998 3.398798,1.17443 2.188438,1.55795 4.688009,2.88419 5.984577,3.17534 1.536888,0.3451 50.99673,0.35756 52.86753,0.0133 z"
       id="path1" />
  </g>
</svg>
